<?xml version="1.0" encoding="UTF-8"?>
		<svg xmlns="http://www.w3.org/2000/svg"  preserveAspectRatio="none" width="40" height="20">
			<style>
				* {
					vector-effect: non-scaling-stroke;
				}

				.sparkline {
					stroke-width: 2;
					fill: transparent;
					stroke: black;
				}

			

			</style>
				<path class="sparkline-fill" style="fill:#e1e1e1;" d="M 0 2.1993145649765538L 2.857142857142857 2L 5.714285714285714 2.3075139002495355L 8.571428571428571 2.3131050620722533L 11.428571428571429 2.534887814373427L 14.285714285714286 4.136769795677861L 17.142857142857142 3.7879603648750795L 20 4.252803346413893L 22.857142857142858 4.064629689069275L 25.714285714285715 3.764596556258475L 28.571428571428573 3.8273677017218652L 31.42857142857143 3.639779045567966L 34.285714285714285 3.3494631449249788L 37.142857142857146 2.738763317836842L 40 2.658545676685886L 40 20 L 0 20"></path>
				<path class="sparkline" style="stroke:#555555;" d="M 0 2.1993145649765538L 2.857142857142857 2L 5.714285714285714 2.3075139002495355L 8.571428571428571 2.3131050620722533L 11.428571428571429 2.534887814373427L 14.285714285714286 4.136769795677861L 17.142857142857142 3.7879603648750795L 20 4.252803346413893L 22.857142857142858 4.064629689069275L 25.714285714285715 3.764596556258475L 28.571428571428573 3.8273677017218652L 31.42857142857143 3.639779045567966L 34.285714285714285 3.3494631449249788L 37.142857142857146 2.738763317836842L 40 2.658545676685886"></path>
		</svg>