<?xml version="1.0" encoding="UTF-8"?>
		<svg xmlns="http://www.w3.org/2000/svg"  preserveAspectRatio="none" width="40" height="20">
			<style>
				* {
					vector-effect: non-scaling-stroke;
				}

				.sparkline {
					stroke-width: 2;
					fill: transparent;
					stroke: black;
				}

			

			</style>
				<path class="sparkline-fill" style="fill:#efc9c9;" d="M 0 14.818483018952627L 2.857142857142857 14.261096198691014L 5.714285714285714 13.92381133156336L 8.571428571428571 13.801719172156558L 11.428571428571429 13.396980442310891L 14.285714285714286 12.525975322696258L 17.142857142857142 11.782157030467369L 20 10.731553260436241L 22.857142857142858 9.395242166750512L 25.714285714285715 8.350629436417872L 28.571428571428573 8.105563384508335L 31.42857142857143 7.5352698727854825L 34.285714285714285 5.032505562787874L 37.142857142857146 3.165783754348279L 40 2L 40 20 L 0 20"></path>
				<path class="sparkline" style="stroke:#cf1111;" d="M 0 14.818483018952627L 2.857142857142857 14.261096198691014L 5.714285714285714 13.92381133156336L 8.571428571428571 13.801719172156558L 11.428571428571429 13.396980442310891L 14.285714285714286 12.525975322696258L 17.142857142857142 11.782157030467369L 20 10.731553260436241L 22.857142857142858 9.395242166750512L 25.714285714285715 8.350629436417872L 28.571428571428573 8.105563384508335L 31.42857142857143 7.5352698727854825L 34.285714285714285 5.032505562787874L 37.142857142857146 3.165783754348279L 40 2"></path>
		</svg>